<svg width="28" height="24" viewBox="0 0 28 24" fill="none" xmlns="http://www.w3.org/2000/svg">
<path d="M18 7.99938V12.9994C18 13.795 18.3161 14.5581 18.8787 15.1207C19.4413 15.6833 20.2044 15.9994 21 15.9994C21.7957 15.9994 22.5587 15.6833 23.1213 15.1207C23.6839 14.5581 24 13.795 24 12.9994V11.9994C23.9999 9.74241 23.2362 7.55186 21.8333 5.78391C20.4303 4.01596 18.4706 2.7746 16.2726 2.26168C14.0747 1.74875 11.7679 1.99442 9.72736 2.95875C7.68677 3.92307 6.03241 5.54933 5.03327 7.5731C4.03413 9.59687 3.74898 11.8991 4.22418 14.1055C4.69938 16.3119 5.90699 18.2926 7.65064 19.7256C9.39429 21.1587 11.5714 21.9597 13.8281 21.9985C16.0847 22.0373 18.2881 21.3116 20.08 19.9394" stroke="black" stroke-width="2" stroke-linecap="round" stroke-linejoin="round"/>
<path d="M14 16C16.5773 16 18.6667 14.2091 18.6667 12C18.6667 9.79086 16.5773 8 14 8C11.4227 8 9.33333 9.79086 9.33333 12C9.33333 14.2091 11.4227 16 14 16Z" stroke="black" stroke-width="2" stroke-linecap="round" stroke-linejoin="round"/>
</svg>
